<svg xmlns="http://www.w3.org/2000/svg" viewBox="0 0 827.66 187.33"><defs><style>.cls-1{fill:#0f69b2;}.cls-2{fill:#9d9c9c;}</style></defs><g id="Camada_2" data-name="Camada 2"><g id="Camada_1-2" data-name="Camada 1"><path class="cls-1" d="M509.86,128.84V35.48H481.27v4.14c-4.48-4.14-10.86-6.38-19.64-6.38a48.23,48.23,0,0,0,0,96.46c8.61,0,15-2.24,19.64-6.37v5.51Zm-48.23-27.9a19.64,19.64,0,1,1,19.64-19.81h0A19.79,19.79,0,0,1,461.63,100.94Z"/><path class="cls-1" d="M405.3,128.84V66.49c0-28.42-33.24-45-57.18-23.77a74.55,74.55,0,0,0-5.34,5.34C332.44,32.21,309,26.53,290.93,42.72V35.31H262.34v93.36h28.59V68.9a14.3,14.3,0,1,1,28.59,0v59.94h28.6V68.9a14.3,14.3,0,1,1,28.59,0v59.94Z"/><rect class="cls-1" x="225.47" y="35.48" width="28.59" height="93.36"/><path class="cls-1" d="M188.79,68.9v59.94h28.59V66.49c0-28.42-33.25-45-57.19-23.77V35.31H131.6v93.36h28.59V68.9a14.3,14.3,0,1,1,28.6,0Z"/><path class="cls-1" d="M80.61,128.84A43,43,0,0,0,123.5,86V40.31L163.64,0h-5L123.5,35.31v-5L153.82,0h-5L123.5,25.32V19.64L143.14,0h-5L123.5,14.64V9.13L132.63,0h-5L123.5,4.13V1H94.91v31.7L66.32,61.32V1H37.72V85.78a30.87,30.87,0,0,0,.17,4L0,127.64H5L38.58,94.05c.35,1.55.69,2.93,1,4.48L10.51,127.64h5L41,102.14a24.81,24.81,0,0,0,1.89,3.79l-21.7,21.71h5l18.43-18.43c.69,1,1.38,1.89,2.07,2.92l-15.5,15.51h5l12.92-12.92A42.29,42.29,0,0,0,80.61,128.84ZM94.91,86a14.26,14.26,0,0,1-14.3,14.3h0a14.46,14.46,0,0,1-11.37-5.68l25.5-25.5L94.91,86ZM66.32,66.32l28.42-28.6v5.51L66.32,71.83Zm0,10.5L94.91,48.4v5.69L66.32,82.51Zm.17,10.51L94.91,58.91v5L67.52,91.29A15,15,0,0,1,66.49,87.33Z"/><path class="cls-1" d="M569.8,57.53,591.33,36l.18-.17a28.41,28.41,0,0,0-3.79-2.24c-13.44-6.89-29.63-3.45-41,9.13V35.31H518.13v93.36h28.59V68.9A14.37,14.37,0,0,1,561,54.6h1.38a1.23,1.23,0,0,1,.68.18h.35a12.44,12.44,0,0,1,4.3,1.37A6.14,6.14,0,0,0,569.8,57.53Z"/><path class="cls-2" d="M703.47,112.31H667.64l-6.72,16.53h-27l37.89-98.7h27.91l37.38,98.7H709.84Zm-6.72-19.47L685.55,61,674.7,93h22Z"/><path class="cls-2" d="M741,129V30.32h33.59c10,0,26.52,1.37,39.27,13.6,11.54,11,13.78,25.32,13.78,36,0,13.09-3.27,24.64-12.92,34.11-7.92,7.92-21,15-37.89,15Zm25.32-21.87h5.17c6.2,0,15-.52,21.53-7.06,3.27-3.1,7.58-9.3,7.58-20.33,0-9.13-2.76-17-7.75-21.53-6-5.68-14.13-6.2-20.5-6.2h-6.2v55.12Z"/><polygon class="cls-2" points="630.09 52.02 630.09 30.32 604.94 30.32 574.11 60.98 574.11 61.15 574.11 129.01 630.09 129.01 630.09 107.14 599.77 107.14 599.77 90.26 628.37 90.26 628.37 68.38 599.77 68.38 599.77 52.02 630.09 52.02"/><path class="cls-1" d="M187.26,176.8c.49,3.09,2.5,5.1,6.12,5.1,3.88,0,5.23-1.68,5.23-4.09,0-3.08-1.87-4.35-6.78-5.75-7.88-2.18-10.57-5-10.57-9.92,0-6.31,5-9.75,11.52-9.75,8.16,0,11.61,4.24,12,9.71H198c-.43-2.51-1.65-4.42-5.26-4.42-3.05,0-4.55,1.42-4.55,3.78,0,2.53,1.7,3.25,6.52,4.65,8.68,2.54,11,6,11,10.89,0,5.54-3.68,10.27-12.58,10.27-7.43,0-12.25-3.74-12.66-10.47Z"/><path class="cls-1" d="M217.4,178.76l-2.4,8.08h-6.81c.45-1.33,9.9-32.5,10.4-34h9l10.93,34H231.2l-2.57-8.08Zm-2.94-29.13v-1.75c0-3.95,2.09-5.06,4.65-5.06,2.94,0,5.9,2,7.44,2,.73,0,1.32-.37,1.32-1.67v-.42h4.37v1.1c0,4.57-2.12,5.9-4.86,5.9-3,0-5.65-2-7.19-2-.71,0-1.26.33-1.26,1.14v.72Zm12.8,23.4c-2.11-6.89-3.58-11.76-4.35-14.93h-.06c-.82,3.78-2.36,9.08-4.14,14.93Z"/><path class="cls-1" d="M270.82,169.68c0,9.78-4.73,17.65-15.44,17.65-10.49,0-15-8.06-15-17.73,0-8.37,4.58-17.21,15.44-17.21C266.13,152.39,270.82,160.53,270.82,169.68Zm-23.25-.05c0,6.78,2.71,12.19,8.09,12.19,5.91,0,8-5,8-12.14,0-6.26-2.11-11.78-8.17-11.78C249.92,157.9,247.57,163.09,247.57,169.63Z"/><path class="cls-1" d="M300,176.22c0,7.14-2.49,11.07-10,11.07a19.4,19.4,0,0,1-3.92-.34v-5.47a21.11,21.11,0,0,0,2.88.16c3.52,0,4.08-2.08,4.08-5.26V152.84H300Z"/><path class="cls-1" d="M336.06,169.68c0,9.78-4.73,17.65-15.44,17.65-10.49,0-15-8.06-15-17.73,0-8.37,4.58-17.21,15.45-17.21C331.38,152.39,336.06,160.53,336.06,169.68Zm-23.24-.05c0,6.78,2.7,12.19,8.09,12.19,5.91,0,8-5,8-12.14,0-6.26-2.11-11.78-8.16-11.78C315.17,157.9,312.82,163.09,312.82,169.63Z"/><path class="cls-1" d="M346.67,176.8c.49,3.09,2.5,5.1,6.13,5.1,3.87,0,5.22-1.68,5.22-4.09,0-3.08-1.86-4.35-6.78-5.75-7.88-2.18-10.57-5-10.57-9.92,0-6.31,5.05-9.75,11.53-9.75,8.15,0,11.61,4.24,12,9.71h-6.81c-.42-2.51-1.64-4.42-5.26-4.42-3,0-4.55,1.42-4.55,3.78,0,2.53,1.71,3.25,6.53,4.65,8.68,2.54,11,6,11,10.89,0,5.54-3.69,10.27-12.59,10.27-7.42,0-12.24-3.74-12.65-10.47Z"/><path class="cls-1" d="M392.23,172H377.45v9.15h16.32l-.83,5.69H370.7v-34h22.15v5.73h-15.4v7.7h14.78Zm-.05-29-8,6.88H378l5.82-6.88Z"/><path class="cls-1" d="M410.79,152.84H422.6c10.33,0,16,6.32,16,16.28,0,11-6,17.72-16.28,17.72H410.79Zm7,28.54h4.5c6,0,9.18-4.51,9.18-12.16,0-6.31-2.84-10.84-9.13-10.84h-4.55Z"/><path class="cls-1" d="M473.65,169.68c0,9.78-4.73,17.65-15.45,17.65-10.48,0-15-8.06-15-17.73,0-8.37,4.58-17.21,15.44-17.21C469,152.39,473.65,160.53,473.65,169.68Zm-23.25-.05c0,6.78,2.71,12.19,8.09,12.19,5.91,0,8-5,8-12.14,0-6.26-2.1-11.78-8.16-11.78C452.75,157.9,450.4,163.09,450.4,169.63Z"/><path class="cls-1" d="M484.26,176.8c.49,3.09,2.5,5.1,6.12,5.1,3.88,0,5.23-1.68,5.23-4.09,0-3.08-1.87-4.35-6.78-5.75-7.88-2.18-10.57-5-10.57-9.92,0-6.31,5-9.75,11.52-9.75,8.16,0,11.61,4.24,12,9.71H495c-.43-2.51-1.65-4.42-5.26-4.42-3.05,0-4.55,1.42-4.55,3.78,0,2.53,1.7,3.25,6.52,4.65,8.68,2.54,11,6,11,10.89,0,5.54-3.68,10.27-12.59,10.27-7.42,0-12.24-3.74-12.65-10.47Z"/><path class="cls-1" d="M546.12,176.14c-.91,5.74-4.77,11.19-13.5,11.19-10.71,0-14.57-7.79-14.57-17.5s4.93-17.44,14.86-17.44c9.18,0,12.69,5.86,13,11.13h-6.77c-.69-2.81-1.82-5.58-6.48-5.58-5.66,0-7.51,5.75-7.51,11.86,0,6.46,1.79,12,7.6,12,4.54,0,5.9-3.15,6.54-5.68Z"/><path class="cls-1" d="M557.57,178.76l-2.4,8.08h-6.81c.44-1.33,9.89-32.5,10.39-34h9l10.93,34h-7.27l-2.58-8.08Zm9.86-5.73c-2.11-6.89-3.58-11.76-4.36-14.93H563c-.82,3.78-2.37,9.08-4.14,14.93Z"/><path class="cls-1" d="M610,174.15c0-5.78.09-12.7.24-16.52h-.27c-1.51,7-5,19.58-7.95,29.21h-6c-2.19-8.11-5.73-22.39-7.13-29.3h-.28c.29,4,.44,11.33.44,17.19v12.11h-6.37v-34H593c2.43,7.94,5.47,19.79,6.42,24.95h0c.74-4.41,4.63-16.92,7.18-24.95h10v34H610Z"/><path class="cls-1" d="M624.28,152.84h12.53c6.39,0,12,3.28,12,10.16,0,7.07-5.2,10.72-12.58,10.72h-5v13.12h-6.94Zm6.94,15.41h4.56c3.69,0,6-1.37,6-5.11,0-3.4-2.38-4.8-5.78-4.8h-4.77Z"/><path class="cls-1" d="M683.17,169.68c0,9.78-4.73,17.65-15.44,17.65-10.48,0-15-8.06-15-17.73,0-8.37,4.59-17.21,15.45-17.21C678.49,152.39,683.17,160.53,683.17,169.68Zm-23.24-.05c0,6.78,2.71,12.19,8.09,12.19,5.91,0,8-5,8-12.14,0-6.26-2.1-11.78-8.16-11.78C662.28,157.9,659.93,163.09,659.93,169.63Z"/><path class="cls-1" d="M693.79,176.8c.48,3.09,2.5,5.1,6.12,5.1,3.88,0,5.23-1.68,5.23-4.09,0-3.08-1.87-4.35-6.79-5.75-7.87-2.18-10.57-5-10.57-9.92,0-6.31,5.05-9.75,11.53-9.75,8.16,0,11.61,4.24,12,9.71H704.5c-.42-2.51-1.64-4.42-5.25-4.42-3,0-4.55,1.42-4.55,3.78,0,2.53,1.7,3.25,6.52,4.65,8.68,2.54,11,6,11,10.89,0,5.54-3.68,10.27-12.59,10.27-7.42,0-12.24-3.74-12.65-10.47Z"/></g></g></svg>